<svg xmlns="http://www.w3.org/2000/svg" width="162.687" height="162.688" viewBox="0 0 162.687 162.688">
  <g id="hammerSide" transform="translate(0)">
    <g id="Group_5" data-name="Group 5" transform="translate(0)">
      <g id="Group_4" data-name="Group 4">
        <path id="Path_10" data-name="Path 10" d="M5.249,13.12H20.993V0h5.248V162.686H20.993V18.368H5.249v2.624H0V10.5H5.249Z" transform="translate(136.446)" fill="#053e6e"/>
        <path id="Path_11" data-name="Path 11" d="M106.513,138.1v2.624a7.882,7.882,0,0,0,7.872,7.872h19.289a9.044,9.044,0,0,1,1.855-10.5,9.139,9.139,0,0,1,0-13.12,9.139,9.139,0,0,1,0-13.12,9.044,9.044,0,0,1-1.855-10.5h-7.255l8.958-8.958V73.728a6.406,6.406,0,0,0-.862.719L107.6,101.363H61.907V96.115h43.521L130.8,70.736a11.632,11.632,0,0,1,4.574-2.792V48.884h-2.152L130.6,35.764h-2.529a18.386,18.386,0,0,0-9.449,2.616L98.694,50.34a8.2,8.2,0,0,1-4.216,1.168h-.766A8.19,8.19,0,0,1,87.92,37.527l16.473-16.473a39.106,39.106,0,0,1,27.833-11.53H162.7l2.624,2.624H168.4l2.623-2.624h19.454v26.24H171.027L168.4,33.14h-3.075L162.7,35.764h-1.559l-2.624,13.12h-2.152V96.115h6.56a9.171,9.171,0,0,1,6.408,15.744,9.139,9.139,0,0,1,0,13.12,9.139,9.139,0,0,1,0,13.12,9.171,9.171,0,0,1-6.408,15.744h-6.56v13.12H135.377v-13.12H114.386a13.14,13.14,0,0,1-12.855-10.5H61.906V138.1Zm34.112,23.615h10.5v-7.872h-10.5Zm1.312-13.12H162.93a3.936,3.936,0,0,0,0-7.872H141.938a3.936,3.936,0,1,0,0,7.872Zm0-13.12h20.992a3.936,3.936,0,0,0,0-7.872H141.938a3.936,3.936,0,1,0,0,7.872Zm0-13.12h20.992a3.936,3.936,0,0,0,0-7.872H141.938a3.936,3.936,0,1,0,0,7.872Zm0-13.12h20.992a3.936,3.936,0,0,0,0-7.872H141.938a3.936,3.936,0,1,0,0,7.872Zm9.184-13.121V48.883h-10.5V96.114h10.5Zm3.1-52.478,2.624-13.12h3.689l2.624-2.624h7.42l2.624,2.624h12.033V14.772H173.2L170.575,17.4h-7.421l-2.624-2.624h-28.3a33.887,33.887,0,0,0-24.119,9.992L91.633,41.237a2.941,2.941,0,0,0,2.078,5.022h.766a2.967,2.967,0,0,0,1.514-.42l19.934-11.96a23.628,23.628,0,0,1,12.149-3.364h6.83l2.625,13.121Z" transform="translate(-61.906 -4.276)" fill="#053e6e"/>
        <rect id="Rectangle_1" data-name="Rectangle 1" width="18.368" height="5.248" transform="translate(78.72 15.744)" fill="#053e6e"/>
        <rect id="Rectangle_2" data-name="Rectangle 2" width="5.248" height="5.248" transform="translate(68.224 15.744)" fill="#053e6e"/>
      </g>
    </g>
  </g>
</svg>
