<svg xmlns="http://www.w3.org/2000/svg" width="50" height="50" viewBox="0 0 50 50">
  <path id="Path_196" data-name="Path 196" d="M104.043,63.708H73.37a9.672,9.672,0,0,0-9.662,9.662v30.677a9.672,9.672,0,0,0,9.662,9.662h30.676a9.672,9.672,0,0,0,9.662-9.662V73.37A9.675,9.675,0,0,0,104.043,63.708Zm3.044,5.59,1.094,0v8.3l-8.359.028-.028-8.3ZM88.708,80.343c6.935,0,8.365,6.51,8.365,8.367a8.365,8.365,0,0,1-16.729,0C80.34,86.853,81.773,80.343,88.708,80.343Zm19.521,23.1a4.8,4.8,0,0,1-4.793,4.791H73.886a4.8,4.8,0,0,1-4.793-4.791v-20.3h6.943a15.935,15.935,0,0,0-1.008,5.568,13.671,13.671,0,1,0,27.341,0,16,16,0,0,0-1.005-5.568h6.859v20.3Z" transform="translate(-63.708 -63.708)" fill="#4e7697"/>
</svg>
