<svg xmlns="http://www.w3.org/2000/svg" width="94.206" height="75.174" viewBox="0 0 94.206 75.174">
  <g id="log" transform="translate(0 -51.162)">
    <rect id="background" width="94" height="75" transform="translate(0.105 51.336)" fill="#e8e8e8"/>
    <path id="Path_11" data-name="Path 11" d="M208.067,68.1l9.58,17.564Z" transform="translate(-168.947 -11.34)" fill="#053e6e"/>
    <path id="Path_12" data-name="Path 12" d="M67.86,126.222H43.91a.8.8,0,1,1,0-1.6H67.86a24.465,24.465,0,0,0,18.2-7.984H77.441a.8.8,0,0,1,0-1.6h9.9a26.222,26.222,0,0,0,5.269-14.37H87.021a.8.8,0,0,1,0-1.6H92.61A24.824,24.824,0,0,0,67.86,75.126H55.087a.8.8,0,1,1,0-1.6H67.86a26.346,26.346,0,0,1,0,52.692Zm-41.515,0a26.346,26.346,0,1,1,0-52.692H47.422L38.481,57.084c-.16-.319-.16-.8.16-.958l6.387-4.79a.789.789,0,0,1,1.118.16l14.37,15.967A.79.79,0,1,1,59.4,68.58L45.506,53.092l-5.269,3.992L49.5,74.009a.726.726,0,0,1,0,.8.637.637,0,0,1-.639.319H26.505A24.749,24.749,0,1,0,51.255,99.876a23.961,23.961,0,0,0-5.429-15.328l-.16-.16a21.758,21.758,0,0,0-3.832-3.832.789.789,0,0,1-.16-1.118.983.983,0,0,1,1.118-.16,21.758,21.758,0,0,1,3.832,3.832H58.28a.8.8,0,1,1,0,1.6H47.9a26.344,26.344,0,0,1,4.79,15.169,21.436,21.436,0,0,1-.639,5.589h9.421a.8.8,0,0,1,0,1.6h-9.74A26.583,26.583,0,0,1,26.346,126.222Zm31.934-6.387H51.893a.8.8,0,0,1,0-1.6H58.28a.8.8,0,1,1,0,1.6Zm-31.934-3.193a16.672,16.672,0,0,1-7.824-1.916.822.822,0,1,1,.8-1.437,15.775,15.775,0,0,0,7.026,1.756.8.8,0,1,1,0,1.6Zm5.748-1.118a.878.878,0,0,1-.8-.479.669.669,0,0,1,.479-.958,15.45,15.45,0,0,0,9.74-14.211.8.8,0,1,1,1.6,0,16.825,16.825,0,0,1-10.7,15.648Zm-18.522-5.269a.829.829,0,0,1-.639-.319A16.237,16.237,0,0,1,9.58,99.876,17.08,17.08,0,0,1,14.37,88.06a.79.79,0,0,1,1.118,1.118,15.114,15.114,0,0,0-4.471,10.7,15.569,15.569,0,0,0,3.034,9.1.789.789,0,0,1-.16,1.118C13.891,110.254,13.732,110.254,13.572,110.254Zm12.774-3.193a7.372,7.372,0,0,1-4.79-1.756.79.79,0,1,1,1.118-1.118,5.777,5.777,0,0,0,7.345,0,.79.79,0,1,1,1.118,1.118A7.371,7.371,0,0,1,26.346,107.061Zm54.288-6.387H77.441a.8.8,0,0,1,0-1.6h3.194a.8.8,0,0,1,0,1.6Zm-47.9,0a.754.754,0,0,1-.8-.8,5.657,5.657,0,0,0-5.589-5.589.8.8,0,0,1,0-1.6,7.155,7.155,0,0,1,7.185,7.185A.754.754,0,0,1,32.733,100.674Zm-12.774,0a.754.754,0,0,1-.8-.8,7.372,7.372,0,0,1,1.756-4.79A.79.79,0,1,1,22.035,96.2,5.329,5.329,0,0,0,20.6,99.876C20.757,100.355,20.438,100.674,19.959,100.674Zm21.715-4.79a.815.815,0,0,1-.8-.639,15,15,0,0,0-8.463-9.421.86.86,0,1,1,.639-1.6,16.606,16.606,0,0,1,9.261,10.379.775.775,0,0,1-.479.958Zm19.8-1.6H58.28a.8.8,0,0,1,0-1.6h3.193a.8.8,0,0,1,0,1.6ZM80.634,87.9h-9.58a.8.8,0,0,1,0-1.6h9.58a.8.8,0,0,1,0,1.6ZM21.556,85.346a.815.815,0,0,1-.8-.639.775.775,0,0,1,.479-.958,17.8,17.8,0,0,1,4.95-.8.8.8,0,1,1,0,1.6,13.775,13.775,0,0,0-4.471.639C21.715,85.346,21.715,85.346,21.556,85.346Z" transform="translate(0)" fill="#053e6e"/>
  </g>
</svg>
