<svg xmlns="http://www.w3.org/2000/svg" width="428" height="779.793" viewBox="0 0 428 779.793">
  <g id="logo_decor" data-name="logo decor" transform="translate(0 734.793) rotate(-90)" style="isolation: isolate">
    <g id="Group_2" data-name="Group 2" transform="translate(-45 0)">
      <g id="Group_1" data-name="Group 1" transform="translate(0)">
        <path id="Path_1" data-name="Path 1" d="M249.828,215.411c14.308-4.044,29.549-8.4,46.035-12.909,16.33-4.51,32.815-8.865,49.145-12.908s32.193-7.465,47.59-9.953a241.955,241.955,0,0,1,41.058-3.888c14.775,0,25.661,1.4,32.66,4.044s11.353,5.6,12.908,8.709,1.089,5.91-1.866,8.709c-2.955,2.644-6.843,4.044-11.975,4.044a10.053,10.053,0,0,0,3.733,4.355,17.506,17.506,0,0,0,5.91,2.955,34.525,34.525,0,0,0,9.954,1.089,44.781,44.781,0,0,0,11.042-1.4,27.926,27.926,0,0,0,9.954-4.666,26.8,26.8,0,0,0,7.154-7.932,23.326,23.326,0,0,0,2.8-11.82q0-10.031-9.331-16.8c-6.065-4.51-15.863-6.843-29.238-6.843a382.5,382.5,0,0,0-46.5,3.11q-24.728,3.266-49.923,7.932c-16.8,3.266-33.437,6.843-50.079,10.887s-32.5,8.087-47.746,12.131c-15.086,4.044-29.239,7.776-42.3,11.353-13.064,3.422-24.417,6.221-33.9,8.4-9.487,2.022-16.952,3.266-22.4,3.422-5.443.311-8.087-.778-8.087-3.266a30.976,30.976,0,0,0-3.266,2.955,15.438,15.438,0,0,0-2.022,3.577,10.266,10.266,0,0,0-.933,4.2q0,3.033,4.2,4.2c2.8.933,6.688,1.244,11.664,1.244,5.754-.311,14.153-1.711,25.35-4.666C222.767,223.031,235.52,219.454,249.828,215.411Z" transform="translate(-170.2 -160.2)" fill="#919191"/>
        <path id="Path_2" data-name="Path 2" d="M668.988,418.776a196.968,196.968,0,0,1-14.308,19.44,117.366,117.366,0,0,1-20.218,18.974c-7.465,5.754-15.4,8.554-23.484,8.554s-13.686-3.577-16.641-10.731-4.2-15.4-3.732-24.728a160.125,160.125,0,0,1,4.821-32.193c2.955-12.131,6.688-24.728,11.2-37.948s9.487-26.284,14.619-39.347S631.2,295.6,635.4,284.559c4.355-11.042,7.932-20.685,10.886-28.927,2.955-8.087,4.355-13.842,4.355-16.952q0-8.865-12.6-8.865a34.685,34.685,0,0,0-7.154.933c-2.8.622-5.754,1.244-8.709,2.022-3.422.933-7,1.866-10.731,2.644,4.2,0,7,1.866,8.243,5.754,1.4,3.888.467,8.087-2.8,12.753-7.62,11.042-16.8,24.262-27.683,39.5s-22.24,31.26-34.215,48.057-24.106,33.593-36.392,50.545-23.8,32.349-34.371,46.346c2.333-24.106,4.666-47.9,6.843-71.385,2.177-23.328,3.888-44.324,5.288-62.831,1.555-18.507,2.644-33.593,3.577-45.257.778-11.664,1.244-18.041,1.244-18.974.311-3.422-.622-6.065-2.8-7.776s-4.2-2.644-6.065-2.644a33.448,33.448,0,0,0-7.154.933c-2.8.622-5.755,1.244-8.709,2.022-3.422.933-7,1.866-10.731,2.644,4.2,0,7.154,2.644,8.865,7.776s.778,11.2-2.955,18.041q-10.731,24.728-27.994,56.455c-11.509,21.151-24.262,42.613-38.258,64.7Q384.147,415.2,360.9,446.925a630.393,630.393,0,0,1-46.968,56.61c-15.708,16.485-30.794,29.86-45.413,39.97s-27.994,15.086-39.814,15.086c-4.666,0-8.4-.933-11.042-2.955a17.825,17.825,0,0,1-5.91-7.932,34.867,34.867,0,0,1-2.022-11.042,60.9,60.9,0,0,1,.933-12.753c1.555-10.109,9.331-35.77,9.02-36.237,9.331-26.75,35.926-108.555,41.68-123.485,6.065-16.33,11.975-32.193,17.73-47.435,5.6-15.241,10.887-29.7,15.552-43.235s8.709-25.506,12.131-35.615c3.421-10.265,6.221-18.352,8.243-24.573,1.866-6.221,2.955-9.642,2.955-10.42q0-4.9-2.8-6.065c-1.866-.778-4.821-1.244-9.02-1.244a42.914,42.914,0,0,0-8.865.933c-2.955.622-5.91,1.244-8.554,2.022-2.955.933-5.91,1.866-8.865,2.644,3.733,0,5.6,2.333,5.91,6.843s-.622,9.642-2.644,15.4c0,0-95.647,274.654-95.958,276.054-1.555,4.666-2.177,10.886-2.177,18.663a67.921,67.921,0,0,0,3.888,22.862,47.644,47.644,0,0,0,12.753,19.44c5.91,5.443,13.842,8.087,23.951,8.087,11.82,0,24.728-3.733,38.57-11.042s28.15-17.574,42.613-30.638c14.619-13.064,29.238-28.461,44.169-46.035s29.394-36.7,43.546-57.077q21.229-30.793,40.436-63.92c12.753-22.24,24.417-44.324,34.837-66.564-.311,2.177-.467,6.065-.933,11.664s-1.089,14.775-2.022,27.683c-1.089,12.908-2.333,30.638-4.2,53.033s-4.355,51.945-7.621,88.337c0,2.022,1.089,2.955,3.266,2.955a24.862,24.862,0,0,0,7.621-1.4,33.833,33.833,0,0,0,8.4-3.888,18.709,18.709,0,0,0,5.91-5.6c7.932-10.109,16.952-22.24,27.372-36.237s21-28.927,31.882-44.791c10.886-15.708,22.084-31.727,33.126-47.9s21.307-31.571,30.638-46.035c-4.044,11.82-8.243,24.262-13.064,37.481s-9.332,26.128-13.686,39.036C572.1,380.362,568.52,392.648,565.721,404c-2.8,11.509-4.2,21.462-4.2,29.705q0,21.462,11.2,32.66c7.465,7.465,18.352,11.353,32.349,11.353a37.1,37.1,0,0,0,12.908-2.333,51.134,51.134,0,0,0,12.131-6.532,79.271,79.271,0,0,0,11.353-9.176,131.162,131.162,0,0,0,10.109-10.731,170.917,170.917,0,0,0,20.685-29.238,11.146,11.146,0,0,0,2.644-6.843v-3.888C674.9,409.444,672.721,412.866,668.988,418.776Z" transform="translate(-161.983 -140.545)" fill="#919191"/>
      </g>
      <path id="Path_3" data-name="Path 3" d="M522.168,283.374A108.178,108.178,0,0,0,532.9,280.73c2.955-.778,5.91-1.4,8.709-2.022a34.676,34.676,0,0,1,7.154-.933c7.154,0,11.509,1.711,12.908,4.977q2.333,4.9-3.732,20.529c-1.089,2.644-2.333,6.532-4.044,11.353s-3.732,10.109-5.91,16.019-4.666,12.286-7.154,18.974c-2.644,6.843-5.132,13.531-7.62,20.218-5.91,15.553-12.286,32.349-18.818,50.7,4.51-6.687,10.109-14.464,16.952-23.329,5.755-7.621,13.064-16.8,22.24-27.528s19.907-23.173,32.5-37.17c10.42-11.353,22.551-23.951,36.7-37.948a525.521,525.521,0,0,1,44.324-39.192A309.976,309.976,0,0,1,713,224.742c15.086-8.243,28.927-12.442,41.214-12.442,10.109,0,18.041,2.644,24.106,8.087a47.642,47.642,0,0,1,12.753,19.44,67.927,67.927,0,0,1,3.888,22.862c0,7.776-.778,14-2.177,18.663a16.075,16.075,0,0,1-5.754,7.776,37.69,37.69,0,0,1-9.954,5.754,24.885,24.885,0,0,1-10.42,1.711c-3.422-.156-5.91-2.022-7.621-5.132,5.132-13.064,8.554-24.573,9.953-34.682a60.915,60.915,0,0,0,.933-12.753,34.862,34.862,0,0,0-2.022-11.042,17.824,17.824,0,0,0-5.91-7.932c-2.644-2.022-6.376-2.955-11.042-2.955-9.331,0-20.529,3.421-33.438,10.576a284.424,284.424,0,0,0-41.525,28.15,573.349,573.349,0,0,0-45.724,40.591q-23.561,23.1-45.879,48.368c-14.93,16.952-28.928,33.9-42.147,51.011s-24.573,33.282-34.215,48.679c-1.866,3.888-4.2,8.865-7,14.619-2.644,5.754-5.6,11.664-8.4,17.574s-5.443,11.508-7.931,16.8-4.355,9.487-5.91,12.753a19.98,19.98,0,0,1-7.621,8.554,35.2,35.2,0,0,1-10.731,4.51,18.389,18.389,0,0,1-8.709.156q-3.266-.933-1.867-4.2c5.6-14.775,11.353-30.172,17.108-46.035,5.91-15.863,11.508-31.571,16.952-46.812,5.6-15.241,10.731-29.86,15.708-43.858,4.977-13.842,9.332-26.439,13.064-37.481,3.888-11.042,7-20.374,9.643-27.994,2.644-7.465,4.2-12.442,4.977-14.619a19.4,19.4,0,0,0,1.089-9.487,16.05,16.05,0,0,0-2.177-6.065A9.245,9.245,0,0,0,522.168,283.374Zm2.177,137.172a158.643,158.643,0,0,1,16.952-14,148.933,148.933,0,0,1,16.486-9.8,38.131,38.131,0,0,1,17.574-4.666,31.151,31.151,0,0,1,10.42,1.4,14.223,14.223,0,0,1,5.754,3.732,10.848,10.848,0,0,1,2.644,5.132,37.031,37.031,0,0,1,.466,5.6c0,2.8,0,7.154-.155,13.375s-.311,13.064-.311,20.685-.156,15.552-.156,23.64.311,15.552.933,22.4a142.461,142.461,0,0,0,2.333,16.641c.933,4.355,2.488,6.532,4.51,6.532,4.51,0,9.642-2.488,15.552-7.465a174.5,174.5,0,0,0,17.263-16.8,196,196,0,0,0,14.931-18.663,144.063,144.063,0,0,0,8.865-12.908,7.229,7.229,0,0,1,.156,4.2,23.221,23.221,0,0,1-2.022,5.754c-.933,2.022-2.021,3.888-2.955,5.6s-1.711,2.955-2.177,3.732c-2.644,3.888-6.376,8.865-10.887,14.619a167.514,167.514,0,0,1-15.086,16.641,119.141,119.141,0,0,1-17.574,13.686,33.969,33.969,0,0,1-18.507,5.754,16.839,16.839,0,0,1-15.4-8.709c-3.266-5.754-5.6-13.064-7-21.773a164.073,164.073,0,0,1-1.866-28.461q.233-15.4.466-28.461a145.5,145.5,0,0,0-1.089-21.773c-.778-5.754-2.8-8.709-5.755-8.709-5.132,0-10.576,2.022-16.174,5.91A129.262,129.262,0,0,0,526.523,426.3c-5.6,5.6-11.353,11.975-16.952,18.818Z" transform="translate(-15.162 -131.272)" fill="#919191"/>
    </g>
    <g id="Group_3" data-name="Group 3" transform="translate(584.558 238.728)">
      <path id="Path_4" data-name="Path 4" d="M582.932,313.8v47.435H575V313.8Z" transform="translate(-575 -313.644)" fill="#919191"/>
      <path id="Path_5" data-name="Path 5" d="M600.332,313.8l25.35,34.06V313.8h7.932v47.435h-7.932l-25.35-34.06v34.06H592.4V313.8Z" transform="translate(-565.339 -313.644)" fill="#919191"/>
      <path id="Path_6" data-name="Path 6" d="M653.995,320.7a16.72,16.72,0,1,0,0,33.437,19.576,19.576,0,0,0,13.22-5.6l4.665,5.288a26.6,26.6,0,0,1-18.351,7.776c-13.842,0-24.729-10.576-24.729-24.106s10.887-23.8,24.884-23.8a26.5,26.5,0,0,1,18.04,7.31l-4.666,5.754A18.412,18.412,0,0,0,653.995,320.7Z" transform="translate(-545.128 -313.7)" fill="#919191"/>
      <path id="Path_7" data-name="Path 7" d="M672.6,343.255a4.261,4.261,0,0,1-4.2,4.51,4.171,4.171,0,0,1-4.2-4.51,4.127,4.127,0,0,1,4.2-4.355A4.218,4.218,0,0,1,672.6,343.255Z" transform="translate(-525.474 -299.708)" fill="#919191"/>
    </g>
  </g>
</svg>
