<svg id="logo" xmlns="http://www.w3.org/2000/svg" width="111.262" height="61.068" viewBox="0 0 111.262 61.068">
  <g id="Group_2" data-name="Group 2" transform="translate(0 0)">
    <g id="Group_1" data-name="Group 1">
      <path id="Path_1" data-name="Path 1" d="M181.561,168.078c2.042-.577,4.216-1.2,6.568-1.842,2.33-.644,4.682-1.265,7.012-1.842s4.593-1.065,6.79-1.42a34.523,34.523,0,0,1,5.858-.555,14.084,14.084,0,0,1,4.66.577,3.32,3.32,0,0,1,1.842,1.243.961.961,0,0,1-.266,1.243,2.447,2.447,0,0,1-1.709.577,1.435,1.435,0,0,0,.533.621,2.5,2.5,0,0,0,.843.422,4.926,4.926,0,0,0,1.42.155,6.389,6.389,0,0,0,1.576-.2,3.984,3.984,0,0,0,1.42-.666,3.824,3.824,0,0,0,1.021-1.132,3.328,3.328,0,0,0,.4-1.686,2.873,2.873,0,0,0-1.331-2.4,7.086,7.086,0,0,0-4.172-.976,54.572,54.572,0,0,0-6.635.444q-3.528.466-7.123,1.132c-2.4.466-4.771.976-7.145,1.553s-4.638,1.154-6.812,1.731c-2.152.577-4.172,1.11-6.036,1.62-1.864.488-3.484.888-4.837,1.2a19.417,19.417,0,0,1-3.2.488c-.777.044-1.154-.111-1.154-.466a4.422,4.422,0,0,0-.466.422,2.2,2.2,0,0,0-.288.51,1.465,1.465,0,0,0-.133.6q0,.433.6.6a5.582,5.582,0,0,0,1.664.178,19.049,19.049,0,0,0,3.617-.666C177.7,169.165,179.52,168.654,181.561,168.078Z" transform="translate(-170.2 -160.2)" fill="#fff"/>
      <path id="Path_2" data-name="Path 2" d="M254.056,227.443a28.1,28.1,0,0,1-2.042,2.774,16.745,16.745,0,0,1-2.885,2.707,5.428,5.428,0,0,1-3.351,1.22,2.355,2.355,0,0,1-2.374-1.531,8.1,8.1,0,0,1-.533-3.528,22.844,22.844,0,0,1,.688-4.593c.422-1.731.954-3.528,1.6-5.414s1.354-3.75,2.086-5.614,1.42-3.595,2.019-5.17c.621-1.576,1.132-2.951,1.553-4.127a8.512,8.512,0,0,0,.621-2.419q0-1.265-1.8-1.265a4.948,4.948,0,0,0-1.021.133c-.4.089-.821.178-1.243.288-.488.133-1,.266-1.531.377a1.115,1.115,0,0,1,1.176.821,1.948,1.948,0,0,1-.4,1.82c-1.087,1.576-2.4,3.462-3.95,5.636s-3.173,4.46-4.882,6.857-3.439,4.793-5.193,7.212-3.4,4.616-4.9,6.613c.333-3.44.666-6.835.976-10.185.311-3.329.555-6.324.754-8.965.222-2.641.377-4.793.51-6.457.111-1.664.178-2.574.178-2.707a1.186,1.186,0,0,0-.4-1.11,1.464,1.464,0,0,0-.865-.377,4.772,4.772,0,0,0-1.021.133c-.4.089-.821.178-1.243.288-.488.133-1,.266-1.531.377.6,0,1.021.377,1.265,1.11a3.224,3.224,0,0,1-.422,2.574q-1.531,3.528-3.994,8.055c-1.642,3.018-3.462,6.08-5.459,9.231q-3.029,4.727-6.346,9.253a89.947,89.947,0,0,1-6.7,8.077,42.74,42.74,0,0,1-6.48,5.7,10.3,10.3,0,0,1-5.681,2.152,2.317,2.317,0,0,1-2.419-1.553,4.975,4.975,0,0,1-.288-1.575,8.689,8.689,0,0,1,.133-1.82c.222-1.442,1.331-5.1,1.287-5.17,1.331-3.817,5.126-15.489,5.947-17.619.865-2.33,1.709-4.593,2.53-6.768.8-2.175,1.553-4.238,2.219-6.169s1.243-3.639,1.731-5.082c.488-1.465.888-2.618,1.176-3.506a15.14,15.14,0,0,0,.422-1.487q0-.7-.4-.865a3.532,3.532,0,0,0-1.287-.178,6.123,6.123,0,0,0-1.265.133c-.422.089-.843.178-1.22.288-.422.133-.843.266-1.265.377.533,0,.8.333.843.976a5.58,5.58,0,0,1-.377,2.2s-13.647,39.188-13.691,39.388a8.746,8.746,0,0,0-.311,2.663,9.692,9.692,0,0,0,.555,3.262,6.8,6.8,0,0,0,1.82,2.774,4.83,4.83,0,0,0,3.417,1.154,11.941,11.941,0,0,0,5.5-1.576,30.426,30.426,0,0,0,6.08-4.371,66.759,66.759,0,0,0,6.3-6.568c2.13-2.508,4.194-5.237,6.213-8.144q3.029-4.394,5.769-9.12c1.82-3.173,3.484-6.324,4.971-9.5-.044.311-.067.865-.133,1.664s-.155,2.108-.288,3.95c-.155,1.842-.333,4.371-.6,7.567s-.621,7.412-1.087,12.6c0,.288.155.422.466.422a3.547,3.547,0,0,0,1.087-.2,4.827,4.827,0,0,0,1.2-.555,2.669,2.669,0,0,0,.843-.8c1.132-1.442,2.419-3.173,3.906-5.17s3-4.127,4.549-6.391c1.553-2.241,3.151-4.527,4.727-6.835s3.04-4.5,4.371-6.568c-.577,1.686-1.176,3.462-1.864,5.348s-1.331,3.728-1.953,5.57c-.621,1.82-1.132,3.573-1.531,5.193a18.4,18.4,0,0,0-.6,4.238,5.626,5.626,0,0,0,6.213,6.28,5.294,5.294,0,0,0,1.842-.333,7.3,7.3,0,0,0,1.731-.932,11.312,11.312,0,0,0,1.62-1.309,18.719,18.719,0,0,0,1.442-1.531,24.386,24.386,0,0,0,2.951-4.172,1.59,1.59,0,0,0,.377-.976v-.555A13.177,13.177,0,0,1,254.056,227.443Z" transform="translate(-181.716 -187.745)" fill="#fff"/>
    </g>
    <path id="Path_3" data-name="Path 3" d="M459.808,222.441a15.438,15.438,0,0,0,1.531-.377c.422-.111.843-.2,1.243-.288a4.949,4.949,0,0,1,1.021-.133c1.021,0,1.642.244,1.842.71q.333.7-.533,2.929c-.155.377-.333.932-.577,1.62s-.533,1.442-.843,2.286-.666,1.753-1.021,2.707c-.377.976-.732,1.931-1.087,2.885-.843,2.219-1.753,4.616-2.685,7.234.644-.954,1.442-2.064,2.419-3.329.821-1.087,1.864-2.4,3.173-3.928s2.84-3.306,4.638-5.3c1.487-1.62,3.218-3.417,5.237-5.414a74.972,74.972,0,0,1,6.324-5.592,44.226,44.226,0,0,1,6.546-4.371,12.543,12.543,0,0,1,5.88-1.775,4.925,4.925,0,0,1,3.439,1.154,6.8,6.8,0,0,1,1.82,2.774,9.691,9.691,0,0,1,.555,3.262,9.508,9.508,0,0,1-.311,2.663,2.294,2.294,0,0,1-.821,1.11,5.377,5.377,0,0,1-1.42.821,3.55,3.55,0,0,1-1.487.244,1.269,1.269,0,0,1-1.087-.732,22.265,22.265,0,0,0,1.42-4.948,8.693,8.693,0,0,0,.133-1.82,4.975,4.975,0,0,0-.289-1.576,2.317,2.317,0,0,0-2.419-1.553,10.2,10.2,0,0,0-4.771,1.509,40.579,40.579,0,0,0-5.925,4.016,81.8,81.8,0,0,0-6.524,5.792q-3.362,3.3-6.546,6.9c-2.13,2.419-4.127,4.838-6.014,7.278s-3.506,4.749-4.882,6.946c-.266.555-.6,1.265-1,2.086-.377.821-.8,1.664-1.2,2.508s-.777,1.642-1.132,2.4-.621,1.354-.843,1.82a2.851,2.851,0,0,1-1.087,1.22,5.021,5.021,0,0,1-1.531.643,2.624,2.624,0,0,1-1.243.022q-.466-.133-.266-.6c.8-2.108,1.62-4.3,2.441-6.568.843-2.263,1.642-4.5,2.419-6.679.8-2.175,1.531-4.261,2.241-6.258.71-1.975,1.331-3.772,1.864-5.348.555-1.576,1-2.907,1.376-3.994.377-1.065.6-1.775.71-2.086a2.768,2.768,0,0,0,.155-1.354,2.289,2.289,0,0,0-.311-.865A1.319,1.319,0,0,0,459.808,222.441Zm.311,19.572a22.639,22.639,0,0,1,2.419-2,21.246,21.246,0,0,1,2.352-1.4,5.441,5.441,0,0,1,2.508-.666,4.445,4.445,0,0,1,1.487.2,2.03,2.03,0,0,1,.821.533,1.548,1.548,0,0,1,.377.732,5.281,5.281,0,0,1,.067.8c0,.4,0,1.021-.022,1.908s-.044,1.864-.044,2.951-.022,2.219-.022,3.373.044,2.219.133,3.2a20.33,20.33,0,0,0,.333,2.374c.133.621.355.932.644.932a3.675,3.675,0,0,0,2.219-1.065,24.9,24.9,0,0,0,2.463-2.4,27.971,27.971,0,0,0,2.13-2.663,20.555,20.555,0,0,0,1.265-1.842,1.031,1.031,0,0,1,.022.6,3.312,3.312,0,0,1-.289.821c-.133.288-.288.555-.422.8s-.244.422-.311.533c-.377.555-.91,1.265-1.553,2.086a23.9,23.9,0,0,1-2.152,2.374,17,17,0,0,1-2.508,1.953,4.846,4.846,0,0,1-2.641.821,2.4,2.4,0,0,1-2.2-1.243,9.3,9.3,0,0,1-1-3.107,23.408,23.408,0,0,1-.266-4.061q.033-2.2.067-4.061a20.757,20.757,0,0,0-.155-3.107c-.111-.821-.4-1.243-.821-1.243a4.11,4.11,0,0,0-2.308.843,18.441,18.441,0,0,0-2.286,1.842c-.8.8-1.62,1.709-2.419,2.685Z" transform="translate(-387.468 -200.739)" fill="#fff"/>
  </g>
  <g id="Group_3" data-name="Group 3" transform="translate(89.826 34.062)">
    <path id="Path_4" data-name="Path 4" d="M576.132,313.8v6.768H575V313.8Z" transform="translate(-575 -313.778)" fill="#fff"/>
    <path id="Path_5" data-name="Path 5" d="M593.532,313.8l3.617,4.86V313.8h1.132v6.768h-1.132l-3.617-4.86v4.86H592.4V313.8Z" transform="translate(-588.539 -313.778)" fill="#fff"/>
    <path id="Path_6" data-name="Path 6" d="M632.395,314.7a2.386,2.386,0,1,0,0,4.771,2.793,2.793,0,0,0,1.886-.8l.666.754a3.8,3.8,0,0,1-2.618,1.11,3.419,3.419,0,1,1,.022-6.835,3.78,3.78,0,0,1,2.574,1.043l-.666.821A2.627,2.627,0,0,0,632.395,314.7Z" transform="translate(-616.862 -313.7)" fill="#fff"/>
    <path id="Path_7" data-name="Path 7" d="M665.4,339.521a.608.608,0,0,1-.6.643.6.6,0,0,1-.6-.643.589.589,0,0,1,.6-.621A.6.6,0,0,1,665.4,339.521Z" transform="translate(-644.406 -333.308)" fill="#fff"/>
  </g>
</svg>
